P3
3 4
255
  0   0   1     0   0   1     0   0   1
  0   0   0     0   0   1     0   0   1
  0   0   0     0   0   0     0   0   1
  0   0   0     0   0   0     0   0   0
